<svg width="18" height="18" viewBox="0 0 18 18" fill="none" xmlns="http://www.w3.org/2000/svg">
<path d="M7.5 15.75H3.75C2.9175 15.75 2.25 15.0825 2.25 14.25V3.75C2.25 2.9175 2.9175 2.25 3.75 2.25H14.25C15.0825 2.25 15.75 2.9175 15.75 3.75V7.7475C15.525 7.6575 15.2775 7.605 15.03 7.605C14.7525 7.605 14.49 7.665 14.25 7.7775V3.75H3.75V14.25H7.5825L7.5 14.3325V15.75ZM5.25 6.75H12.75V5.25H5.25V6.75ZM5.25 12.75H9.0825L10.5 11.34V11.25H5.25V12.75ZM5.25 9.75H12.09L12.75 9.09V8.25H5.25V9.75ZM16.275 10.185L15.315 9.225C15.2379 9.14942 15.1342 9.10708 15.0262 9.10708C14.9183 9.10708 14.8146 9.14942 14.7375 9.225L13.9875 9.975L15.525 11.5125L16.275 10.7625C16.3506 10.6854 16.3929 10.5817 16.3929 10.4738C16.3929 10.3658 16.3506 10.2621 16.275 10.185ZM9 16.5H10.545L15.0825 11.9475L13.545 10.41L9 14.955V16.5Z" fill="#0A4B88"/>
</svg>
