<svg width="20" height="20" viewBox="0 0 20 20" fill="none" xmlns="http://www.w3.org/2000/svg">
<path d="M18.125 2.8125H1.875C1.54359 2.81287 1.22587 2.94469 0.991528 3.17903C0.757188 3.41337 0.625372 3.73109 0.625 4.0625V15.9375C0.625372 16.2689 0.757188 16.5866 0.991528 16.821C1.22587 17.0553 1.54359 17.1871 1.875 17.1875H18.125C18.4564 17.1871 18.7741 17.0553 19.0085 16.821C19.2428 16.5866 19.3746 16.2689 19.375 15.9375V4.0625C19.3746 3.73109 19.2428 3.41337 19.0085 3.17903C18.7741 2.94469 18.4564 2.81287 18.125 2.8125ZM18.125 15.9375H1.875V4.0625H18.125L18.1258 15.9375H18.125Z" fill="black"/>
<path d="M9.06258 7.1875H16.2501V8.4375H9.06258V7.1875ZM6.87508 10H16.2501V11.25H6.87508V10ZM6.87508 12.8125H16.2501V14.0625H6.87508V12.8125ZM3.47363 5.625V10.6611L7.34754 7.94934L3.47363 5.625Z" fill="black"/>
</svg>
