<svg width="15" height="15" viewBox="0 0 15 15" fill="none" xmlns="http://www.w3.org/2000/svg">
<path d="M1.98145 10.3308V12.5428H4.19349L10.7175 6.01878L8.50549 3.80673L1.98145 10.3308ZM12.4282 4.30813C12.4829 4.25356 12.5262 4.18874 12.5558 4.11738C12.5854 4.04602 12.6007 3.96952 12.6007 3.89227C12.6007 3.81501 12.5854 3.73852 12.5558 3.66716C12.5262 3.5958 12.4829 3.53098 12.4282 3.4764L11.0479 2.09609C10.9933 2.04141 10.9285 1.99802 10.8571 1.96842C10.7858 1.93882 10.7093 1.92358 10.632 1.92358C10.5547 1.92358 10.4782 1.93882 10.4069 1.96842C10.3355 1.99802 10.2707 2.04141 10.2161 2.09609L9.13666 3.17557L11.3487 5.38761L12.4282 4.30813Z" fill="#F1F1F1"/>
</svg>
